<?xml version="1.0" standalone="no"?>
<!DOCTYPE svg PUBLIC "-//W3C//DTD SVG 20010904//EN"
 "http://www.w3.org/TR/2001/REC-SVG-20010904/DTD/svg10.dtd">
<svg version="1.0" xmlns="http://www.w3.org/2000/svg"
 width="1414.000000pt" height="1414.000000pt" viewBox="0 0 1414.000000 1414.000000"
 preserveAspectRatio="xMidYMid meet">
<metadata>
Created by potrace 1.11, written by Peter Selinger 2001-2013
</metadata>
<g transform="translate(0.000000,1414.000000) scale(0.100000,-0.100000)"
fill="#000000" stroke="none">
<path d="M2860 14123 c-94 -24 -128 -44 -210 -124 -50 -48 -122 -159 -104
-159 4 0 2 -6 -4 -12 -21 -26 -38 -213 -20 -224 4 -3 8 -17 8 -31 0 -24 55
-152 70 -163 6 -4 300 -372 360 -450 11 -14 30 -38 42 -55 13 -16 69 -90 125
-165 56 -74 106 -139 110 -145 5 -5 19 -26 33 -45 13 -19 27 -37 30 -40 4 -3
21 -27 40 -55 19 -27 36 -52 39 -55 3 -3 22 -27 40 -55 19 -27 37 -52 40 -55
4 -3 30 -41 60 -85 30 -44 57 -82 60 -85 14 -12 51 -70 51 -79 0 -5 4 -11 8
-13 4 -1 37 -46 72 -98 36 -52 68 -96 72 -98 5 -2 8 -8 8 -12 0 -5 15 -30 33
-56 17 -25 37 -53 42 -63 6 -9 13 -18 16 -21 3 -3 12 -16 19 -29 7 -14 17 -30
22 -35 5 -6 35 -51 67 -101 32 -49 87 -135 123 -190 36 -55 73 -114 82 -130 9
-17 21 -37 26 -45 6 -8 46 -73 90 -145 43 -71 83 -134 87 -140 5 -5 17 -29 28
-52 11 -24 23 -43 28 -43 4 0 7 -4 7 -9 0 -5 19 -42 43 -83 24 -40 59 -100 77
-133 18 -33 41 -73 51 -90 10 -16 32 -57 50 -90 17 -33 44 -82 59 -110 15 -27
42 -79 61 -115 18 -36 36 -67 39 -70 9 -9 144 -285 142 -292 -1 -3 5 -12 13
-18 8 -7 15 -18 15 -24 0 -6 18 -48 39 -92 22 -45 65 -139 96 -210 31 -71 62
-142 70 -159 42 -96 144 -353 167 -420 5 -16 14 -39 18 -50 11 -27 23 -59 25
-65 2 -10 67 -205 72 -220 3 -8 7 -19 9 -25 28 -96 36 -122 36 -132 1 -7 6
-13 11 -13 6 0 8 -2 5 -5 -3 -3 3 -38 14 -78 11 -40 21 -76 22 -82 2 -5 7 -28
11 -50 11 -49 10 -47 17 -65 6 -15 46 -205 53 -250 2 -14 6 -36 8 -50 2 -14 7
-50 11 -80 4 -30 10 -68 13 -85 24 -146 36 -655 20 -900 -15 -235 -32 -414
-43 -465 -3 -14 -7 -47 -9 -75 -2 -27 -8 -79 -14 -115 -6 -36 -13 -81 -15
-100 -3 -19 -7 -44 -9 -55 -3 -11 -8 -42 -11 -68 -4 -27 -9 -57 -11 -67 -2 -9
-6 -33 -9 -51 -3 -19 -7 -43 -10 -54 -2 -11 -7 -40 -12 -65 -4 -25 -8 -47 -9
-50 -2 -6 -13 -65 -19 -100 -3 -14 -8 -36 -11 -50 -3 -14 -7 -36 -10 -50 -7
-36 -11 -54 -35 -160 -12 -52 -23 -106 -26 -120 -3 -14 -9 -41 -14 -60 -5 -19
-11 -46 -14 -60 -8 -44 -76 -314 -83 -330 -3 -8 -7 -24 -8 -35 -2 -11 -11 -47
-20 -79 -9 -32 -19 -66 -20 -75 -2 -9 -4 -17 -5 -18 -2 -2 -4 -7 -5 -13 -1 -5
-3 -11 -4 -12 -2 -2 -4 -13 -7 -26 -2 -13 -12 -51 -23 -85 -40 -133 -72 -249
-74 -268 -1 -10 -4 -19 -7 -19 -4 0 -7 -6 -7 -12 0 -11 -65 -226 -81 -268 -3
-8 -6 -17 -7 -20 0 -3 -11 -39 -24 -80 -13 -41 -25 -82 -27 -90 -4 -22 -183
-551 -194 -575 -5 -11 -14 -38 -21 -60 -6 -22 -14 -44 -18 -50 -3 -5 -6 -14
-8 -20 -3 -16 -68 -196 -86 -237 -8 -20 -13 -39 -9 -42 3 -3 0 -6 -6 -6 -7 0
-11 -3 -10 -7 2 -11 -13 -66 -22 -78 -4 -5 -18 -41 -31 -80 -13 -38 -27 -73
-32 -76 -5 -3 -8 -9 -7 -13 1 -4 -3 -21 -10 -39 -20 -53 -42 -111 -51 -132
-32 -81 -79 -207 -79 -215 0 -5 -5 -10 -12 -10 -6 0 -9 -3 -6 -6 6 -5 -24 -87
-58 -161 -8 -17 -14 -33 -14 -36 0 -3 -9 -26 -20 -51 -11 -26 -20 -48 -20 -51
-1 -2 -26 -62 -56 -132 -31 -71 -57 -132 -58 -138 -2 -5 -11 -28 -21 -50 -9
-22 -25 -58 -35 -80 -28 -64 -33 -80 -32 -87 1 -5 -3 -8 -8 -8 -6 0 -10 -6
-10 -13 0 -8 -6 -27 -14 -43 -8 -16 -21 -45 -29 -64 -13 -31 -36 -82 -125
-280 -30 -67 -39 -109 -40 -181 -1 -73 24 -186 46 -211 8 -10 12 -18 8 -18
-11 0 78 -112 110 -139 62 -50 209 -105 279 -103 50 1 139 14 153 22 9 5 35
17 57 26 57 25 136 91 173 144 24 36 113 210 118 230 2 9 36 87 95 217 10 24
19 50 19 58 0 8 5 15 10 15 6 0 10 5 10 10 0 6 7 27 17 48 9 20 17 39 18 42 0
3 9 20 18 37 10 18 15 33 12 33 -4 0 3 17 14 37 11 21 45 99 75 173 30 74 62
153 72 175 10 22 18 45 20 50 1 6 10 31 21 55 11 25 30 72 43 105 12 33 30 78
40 100 10 22 29 72 43 110 14 39 37 98 51 132 13 35 21 63 18 63 -4 0 -2 4 3
8 6 4 19 32 29 62 11 30 26 71 35 90 8 19 16 40 17 45 1 6 21 60 44 120 23 61
43 117 45 125 4 15 60 170 72 200 3 8 7 17 8 20 1 3 6 20 10 38 4 17 11 32 16
32 5 0 8 3 7 8 -2 4 41 142 96 307 97 295 107 328 107 332 0 2 6 18 15 38 8
19 14 36 13 37 0 2 2 10 5 18 17 52 66 216 66 222 0 5 6 25 14 45 21 58 61
193 71 243 2 8 4 15 5 15 1 0 3 8 6 18 10 43 30 112 51 177 8 25 17 54 19 65
2 11 6 30 8 43 3 12 8 27 11 32 3 5 8 18 10 27 2 10 24 100 50 200 25 100 48
191 50 203 2 12 7 30 10 40 3 10 8 29 11 42 11 49 14 64 20 88 3 14 7 34 9 45
2 11 12 58 23 105 19 80 26 112 37 168 2 13 6 31 9 40 3 9 7 33 10 52 3 19 10
60 16 90 13 65 16 80 36 188 9 46 13 86 10 89 -3 4 -2 11 3 17 5 6 12 31 15
56 6 52 15 114 22 150 3 14 7 41 9 60 3 19 7 51 10 70 9 65 26 205 31 255 2
28 7 69 10 93 20 173 37 499 37 737 1 181 -15 540 -23 540 -2 0 -12 99 -14
138 0 15 -3 27 -6 27 -3 0 -5 10 -6 23 -1 19 -8 71 -18 132 -2 11 -9 49 -15
85 -14 85 -19 107 -26 131 -4 11 -8 33 -10 49 -3 22 -58 248 -90 370 -19 69
-26 96 -50 170 -14 47 -28 90 -29 95 -2 6 -5 17 -8 25 -3 8 -12 35 -19 60 -7
25 -20 61 -28 80 -8 19 -16 40 -17 45 -5 21 -65 191 -75 210 -6 12 -11 27 -13
35 -2 8 -8 26 -13 40 -52 125 -65 156 -67 165 -3 12 -9 24 -66 160 -23 55 -56
129 -73 165 -17 36 -31 67 -32 70 -19 59 -377 783 -396 800 -3 3 -14 23 -26
45 -11 22 -35 67 -53 100 -18 33 -43 78 -54 100 -12 22 -24 42 -27 45 -4 3
-15 22 -25 42 -11 21 -49 90 -86 153 -38 63 -68 118 -68 121 0 2 -5 10 -10 17
-19 22 -150 239 -150 248 0 5 -4 9 -10 9 -5 0 -12 11 -16 24 -3 14 -14 32 -25
42 -10 9 -19 21 -19 26 0 10 -114 195 -164 267 -20 28 -36 55 -36 60 0 5 -7
14 -15 21 -9 7 -23 28 -31 46 -9 19 -20 34 -25 34 -5 0 -9 4 -9 9 0 9 -176
279 -189 291 -4 3 -44 61 -91 130 -75 111 -305 439 -327 465 -5 6 -26 34 -47
64 -21 30 -43 59 -48 65 -5 6 -27 36 -48 66 -22 30 -46 62 -53 70 -7 8 -24 31
-37 50 -32 47 -42 58 -62 78 -10 9 -18 22 -18 28 0 7 -4 14 -8 16 -4 2 -53 62
-107 133 -55 72 -107 139 -117 150 -19 23 -85 105 -96 120 -21 29 -130 160
-152 183 -61 65 -156 121 -235 138 -53 12 -165 10 -215 -3z"/>
<path d="M11098 14134 c-2 -2 -19 -6 -38 -9 -65 -12 -163 -67 -220 -124 -57
-58 -66 -69 -140 -163 -25 -32 -48 -58 -52 -58 -5 0 -8 -6 -8 -14 0 -8 -3 -16
-8 -18 -4 -1 -23 -23 -41 -48 -19 -25 -39 -49 -45 -55 -6 -5 -38 -46 -71 -90
-32 -44 -62 -82 -65 -85 -7 -5 -113 -144 -140 -184 -8 -12 -60 -82 -116 -156
-55 -74 -123 -166 -150 -203 -27 -38 -70 -98 -96 -133 -27 -36 -48 -69 -48
-74 0 -4 -4 -10 -8 -12 -8 -3 -73 -95 -213 -303 -30 -44 -57 -82 -60 -85 -4
-3 -21 -30 -40 -60 -18 -30 -36 -57 -39 -60 -3 -3 -21 -30 -40 -60 -19 -30
-37 -57 -40 -60 -4 -3 -15 -21 -26 -40 -10 -19 -21 -37 -24 -40 -3 -3 -34 -50
-70 -105 -35 -55 -67 -101 -72 -103 -4 -2 -8 -8 -8 -14 0 -5 -34 -64 -75 -129
-41 -66 -75 -121 -75 -124 0 -2 -17 -30 -37 -62 -21 -32 -43 -67 -50 -78 -68
-114 -111 -188 -132 -225 -13 -25 -27 -47 -30 -50 -3 -3 -15 -23 -26 -45 -11
-22 -25 -47 -31 -55 -7 -8 -26 -42 -44 -75 -17 -33 -41 -78 -54 -100 -12 -22
-46 -85 -76 -140 -29 -55 -56 -102 -59 -105 -3 -3 -7 -10 -8 -15 -1 -6 -17
-38 -36 -72 -20 -34 -39 -72 -43 -85 -3 -13 -9 -25 -13 -28 -9 -7 -81 -153
-81 -164 0 -5 -6 -17 -13 -25 -8 -9 -46 -86 -85 -171 -39 -85 -87 -190 -106
-233 -20 -42 -36 -79 -36 -82 0 -2 -11 -28 -24 -57 -26 -60 -38 -91 -36 -97 1
-2 -2 -7 -7 -10 -5 -3 -21 -40 -37 -81 -31 -83 -42 -110 -62 -155 -7 -16 -33
-86 -57 -155 -25 -69 -54 -152 -66 -185 -12 -33 -29 -85 -37 -115 -8 -30 -28
-93 -43 -140 -25 -73 -42 -132 -43 -150 0 -3 -4 -15 -9 -28 -5 -12 -11 -33
-13 -45 -3 -12 -14 -56 -25 -97 -11 -41 -23 -93 -27 -115 -3 -22 -7 -42 -9
-46 -10 -16 -71 -327 -81 -414 -3 -22 -7 -55 -9 -72 -11 -77 -23 -182 -31
-278 -22 -249 -16 -701 12 -1000 3 -38 8 -88 10 -110 3 -50 13 -150 18 -190 2
-16 7 -57 11 -90 4 -33 8 -71 10 -85 5 -33 16 -110 20 -135 2 -11 6 -40 10
-65 4 -25 9 -58 11 -75 3 -16 6 -41 9 -55 2 -14 6 -36 8 -50 10 -60 55 -305
62 -340 3 -14 13 -61 21 -105 17 -84 17 -85 27 -125 4 -14 8 -38 11 -55 2 -16
7 -37 10 -45 3 -8 8 -26 10 -40 3 -14 10 -42 15 -62 5 -21 7 -38 4 -38 -3 0 0
-7 7 -15 7 -8 10 -15 7 -15 -3 0 -1 -17 4 -37 6 -21 12 -51 15 -68 3 -16 10
-38 15 -47 5 -10 8 -18 5 -18 -3 0 0 -15 5 -32 6 -18 12 -42 14 -53 3 -11 8
-33 11 -50 3 -16 9 -34 12 -40 3 -5 7 -16 7 -25 1 -8 17 -69 34 -135 18 -66
35 -127 36 -135 2 -8 4 -16 5 -17 2 -2 3 -6 4 -10 2 -5 8 -28 16 -53 7 -25 14
-49 16 -55 6 -26 35 -127 54 -190 12 -38 23 -81 26 -94 5 -22 32 -111 89 -286
12 -38 35 -110 50 -160 15 -49 36 -113 46 -141 10 -29 15 -55 12 -58 -4 -3 -1
-6 5 -6 7 0 11 -3 10 -7 -2 -8 64 -216 82 -258 17 -40 23 -60 27 -85 2 -13 8
-29 13 -35 4 -5 13 -26 18 -45 14 -48 55 -164 82 -230 12 -30 21 -55 20 -55
-1 0 1 -7 4 -15 37 -104 68 -188 73 -200 3 -8 7 -22 9 -30 2 -8 7 -23 12 -35
15 -32 30 -69 78 -199 25 -66 68 -177 96 -246 28 -69 51 -129 52 -135 1 -5 4
-14 8 -20 3 -5 29 -68 58 -140 60 -152 76 -190 96 -227 9 -16 13 -28 10 -28
-4 0 19 -55 70 -167 8 -17 14 -34 14 -38 0 -4 16 -40 35 -81 19 -40 35 -76 35
-79 0 -4 11 -30 24 -58 14 -29 40 -88 60 -132 19 -44 44 -102 57 -130 13 -27
22 -53 21 -57 -1 -5 3 -8 9 -8 5 0 7 -4 4 -10 -3 -5 -1 -10 4 -10 6 0 10 -3 9
-7 -5 -18 46 -95 94 -145 54 -54 157 -116 206 -124 15 -3 54 -7 87 -10 33 -2
65 -6 72 -9 7 -2 15 0 18 5 4 6 18 10 33 10 41 1 135 43 189 86 137 107 198
271 169 452 -6 36 -68 186 -162 389 -26 56 -41 93 -43 106 0 4 -8 22 -18 40
-9 17 -18 34 -18 37 -1 3 -11 27 -24 55 -13 27 -24 54 -26 60 -1 5 -13 35 -27
67 -22 48 -39 89 -43 108 -1 3 -7 19 -15 35 -33 77 -50 116 -80 190 -29 72
-43 106 -70 170 -10 24 -23 58 -24 65 -1 3 -34 86 -73 185 -39 99 -85 221
-103 270 -18 50 -37 96 -43 103 -5 7 -7 15 -4 19 4 3 2 11 -3 18 -5 6 -20 43
-34 81 -68 197 -88 251 -96 266 -6 10 -10 22 -10 27 0 5 -5 22 -12 38 -6 15
-12 33 -14 38 -5 17 -84 249 -91 265 -3 8 -7 20 -8 25 0 6 -4 17 -8 25 -10 24
-98 293 -103 315 -2 11 -13 45 -24 75 -12 30 -23 64 -25 75 -7 39 -14 65 -20
75 -8 13 -65 202 -80 265 -1 6 -5 17 -8 25 -11 25 -39 134 -40 153 -1 9 -6 17
-11 17 -5 0 -6 3 -3 7 4 3 2 12 -4 20 -6 7 -9 13 -6 13 3 0 1 15 -5 33 -13 41
-67 244 -74 277 -3 14 -14 59 -25 100 -36 131 -50 191 -53 213 -2 12 -8 40
-14 62 -24 92 -65 272 -68 295 -1 14 -3 25 -4 25 -2 0 -5 16 -14 60 -5 26 -27
135 -41 200 -2 11 -6 38 -10 59 -3 21 -8 48 -10 60 -3 12 -8 36 -10 54 -10 63
-15 98 -25 152 -5 30 -12 71 -14 90 -3 19 -7 49 -10 65 -5 27 -8 54 -22 165
-2 19 -6 60 -9 90 -2 30 -5 55 -6 55 -1 0 -3 16 -5 35 -2 19 -5 60 -8 90 -47
490 -37 950 30 1320 2 14 7 41 10 60 2 19 11 62 19 95 8 33 17 78 21 100 3 22
9 44 12 50 3 5 7 22 9 39 2 16 8 34 13 41 5 7 7 15 4 18 -3 3 -2 12 2 19 5 7
10 22 12 33 1 11 12 51 24 90 11 38 22 77 23 85 2 8 4 16 5 18 2 1 4 7 5 12 1
6 4 12 5 15 1 3 3 8 5 13 1 4 4 14 7 22 3 8 14 42 24 75 9 33 37 114 61 180
25 66 46 125 47 130 2 6 8 24 15 40 6 17 19 50 28 75 9 25 20 49 25 55 4 5 8
15 8 22 0 7 12 38 26 70 14 32 29 67 34 78 4 11 17 41 29 67 12 26 21 50 21
52 0 3 18 44 40 93 23 48 55 120 73 158 66 144 280 570 288 573 5 2 9 12 9 23
0 10 5 19 12 19 6 0 8 3 5 6 -4 4 2 19 12 33 10 14 32 53 49 86 16 33 64 120
106 193 42 74 76 136 76 139 0 4 6 14 14 22 7 9 24 36 37 61 13 25 27 47 30
50 3 3 8 10 10 15 2 6 45 77 94 158 50 81 100 165 112 185 12 20 27 44 33 52
5 8 24 38 41 65 18 28 49 75 70 107 22 31 39 61 39 67 0 6 5 11 10 11 6 0 10
7 10 15 0 8 4 15 9 15 5 0 14 14 21 30 7 17 16 30 20 30 3 0 13 12 21 27 17
33 246 375 301 450 21 29 38 56 38 62 0 5 3 11 8 13 4 2 32 38 62 81 30 44 65
91 78 107 12 15 22 33 22 39 0 6 3 11 8 11 4 0 18 17 32 38 14 20 29 42 33 47
4 6 78 105 164 220 85 116 165 222 177 236 11 14 30 38 41 53 22 31 74 97 105
134 11 13 20 27 20 32 0 5 3 10 8 12 6 2 71 80 94 113 4 5 25 30 48 55 22 25
40 48 40 51 0 3 18 25 40 50 22 24 40 47 40 51 0 4 10 24 22 45 12 20 23 42
24 48 1 5 6 24 10 40 8 34 11 175 3 220 -3 17 -10 40 -17 53 -7 12 -10 22 -7
22 12 0 -63 108 -105 149 -52 52 -145 104 -205 115 -42 8 -172 16 -177 10z"/>
<path d="M6990 14032 c-14 -2 -32 -6 -40 -9 -8 -3 -20 -7 -26 -8 -54 -12 -161
-87 -274 -195 -30 -28 -86 -79 -124 -113 -37 -34 -97 -89 -132 -122 -35 -33
-87 -81 -116 -107 -29 -25 -79 -71 -112 -102 -32 -31 -60 -56 -61 -56 -2 0
-23 -19 -48 -42 -24 -24 -84 -79 -132 -123 -48 -44 -102 -93 -120 -110 -18
-16 -70 -64 -115 -105 -208 -189 -246 -233 -280 -325 -27 -75 -30 -88 -30
-150 -1 -119 26 -197 118 -347 23 -38 38 -68 34 -68 -4 0 -2 -4 4 -8 6 -4 31
-43 54 -87 24 -44 47 -82 51 -85 4 -3 13 -17 19 -30 11 -26 38 -75 105 -190
21 -36 49 -85 63 -110 13 -25 42 -74 62 -110 21 -36 47 -81 58 -100 11 -19 52
-91 91 -159 39 -68 71 -128 71 -133 0 -4 4 -8 8 -8 4 0 13 -12 19 -27 7 -16
25 -50 42 -78 17 -27 34 -57 38 -65 4 -8 26 -48 50 -88 24 -41 43 -77 43 -82
0 -5 3 -10 8 -12 4 -2 15 -19 25 -38 9 -19 31 -57 47 -85 17 -27 34 -57 37
-65 4 -8 9 -17 13 -20 3 -3 14 -21 23 -40 10 -19 28 -53 41 -75 26 -42 50 -85
82 -145 11 -19 21 -37 24 -40 3 -3 14 -21 24 -40 58 -106 110 -168 181 -215
44 -29 99 -54 107 -49 5 3 8 0 8 -7 0 -7 3 -10 6 -7 3 4 19 2 36 -2 61 -18
188 -11 231 11 9 5 17 7 17 4 0 -9 83 36 125 69 22 17 52 44 67 61 30 33 108
160 108 175 0 6 5 10 10 10 6 0 10 6 10 14 0 8 6 21 13 28 7 7 13 15 13 18 0
3 13 28 30 55 36 62 59 103 76 135 7 14 15 27 18 30 5 5 39 65 69 125 9 16 18
32 21 35 6 6 35 55 52 90 7 14 15 27 18 30 3 3 14 23 25 45 11 22 22 42 25 45
10 9 118 205 118 214 0 5 4 12 9 15 9 6 49 72 86 141 10 19 29 53 42 75 13 22
34 57 45 78 12 21 73 129 137 240 64 111 127 222 141 247 13 25 31 53 40 63 8
9 12 17 9 17 -4 0 9 25 28 55 19 30 35 58 35 63 0 5 8 20 18 33 10 13 36 58
58 99 21 41 43 78 47 81 5 3 8 8 7 10 -1 2 3 16 9 30 18 48 29 133 25 189 -4
69 -8 84 -30 140 -34 85 -74 133 -219 265 -49 44 -105 96 -126 115 -58 54
-220 203 -239 220 -41 36 -174 156 -217 198 -27 24 -81 75 -121 111 -41 36
-95 86 -121 111 -62 58 -223 205 -281 256 -25 21 -51 44 -58 51 -20 19 -136
74 -160 76 -12 1 -22 4 -22 7 0 6 -130 8 -170 2z m169 -1157 c24 -22 63 -58
87 -80 24 -22 73 -67 109 -100 36 -33 88 -80 114 -105 27 -25 94 -87 149 -138
l101 -93 -21 -37 c-11 -20 -29 -50 -39 -67 -10 -16 -27 -47 -38 -67 -36 -65
-46 -83 -57 -98 -6 -8 -24 -40 -40 -70 -16 -30 -31 -57 -34 -60 -3 -3 -10 -14
-16 -25 -42 -77 -83 -150 -121 -213 -24 -41 -43 -76 -43 -78 0 -2 -18 -34 -40
-70 -22 -36 -40 -70 -40 -74 0 -5 -6 -15 -13 -22 -7 -7 -26 -38 -41 -68 -16
-30 -31 -57 -35 -60 -3 -3 -15 -23 -26 -45 -10 -22 -27 -50 -35 -62 -16 -21
-17 -21 -46 35 -16 31 -32 59 -36 60 -5 2 -8 10 -8 18 0 8 -5 14 -11 14 -5 0
-8 4 -4 9 3 5 1 12 -4 16 -5 3 -16 18 -24 33 -7 15 -24 45 -37 67 -12 22 -34
60 -48 85 -14 25 -36 62 -49 82 -12 21 -23 42 -23 48 0 5 -4 10 -10 10 -5 0
-10 6 -10 14 0 7 -9 25 -20 38 -10 14 -17 28 -14 30 2 3 -2 11 -11 18 -8 7
-15 16 -15 20 0 7 -77 142 -136 240 -8 14 -23 41 -32 60 -9 19 -20 37 -23 40
-6 5 -57 96 -87 154 -17 32 -36 9 173 201 44 40 92 84 106 96 14 13 67 62 118
109 51 47 116 106 143 133 28 26 53 47 57 47 3 0 12 9 19 21 l13 20 27 -23
c15 -13 47 -41 71 -63z"/>
</g>
</svg>
