<?xml version="1.0" encoding="utf-8"?>
<!-- Svg Vector Icons : http://www.onlinewebfonts.com/icon -->
<!DOCTYPE svg PUBLIC "-//W3C//DTD SVG 1.1//EN" "http://www.w3.org/Graphics/SVG/1.1/DTD/svg11.dtd">
<svg version="1.1" xmlns="http://www.w3.org/2000/svg" xmlns:xlink="http://www.w3.org/1999/xlink" x="0px" y="0px" viewBox="0 0 1000 1000" enable-background="new 0 0 1000 1000" xml:space="preserve">
<metadata> Svg Vector Icons : http://www.onlinewebfonts.com/icon </metadata>
<g><g transform="translate(0.000000,511.000000) scale(0.100000,-0.100000)"><path d="M1002.4,3670.1C591,3569.6,245,3228.2,135.1,2807.4C104.7,2688.2,100,2332.8,100,111.9c0-2251.4,4.7-2574,37.4-2700.2c100.5-388.1,388.1-696.7,783.2-839.3l149.6-53.8l3822.4-7c2552.9-4.7,3876.2,2.3,3986,18.7c469.9,70.1,860.3,427.8,981.9,900.1c53.8,208.1,51.4,5136.3,0,5363.1c-100.5,427.8-451.2,778.5-879,879C8764.1,3723.9,1215.2,3721.5,1002.4,3670.1z M8408.7,2774.7c-11.7-11.7-771.5-554.1-1690.3-1204C5619.7,789.9,5042.2,394.8,5023.5,406.4c-14,11.7-720.1,544.7-1568.7,1185.3c-848.6,640.6-1552.3,1173.6-1564,1185.3c-14,9.3,1454.1,18.7,3259,18.7C7090.2,2795.7,8422.8,2786.4,8408.7,2774.7z M1416.2,1991.5C3279.5,574.8,5004.8-720.4,5032.9-720.4c18.7,0,911.8,621.9,1982.5,1384c1070.7,762.1,1952.1,1384,1959.1,1384c4.7,0,9.4-991.3,9.4-2202.3c0-2169.5,0-2206.9-46.8-2281.7c-95.8-154.3,166-145-3939.3-145c-4004.7,0-3820.1-4.7-3927.6,116.9c-46.8,51.4-46.8,88.8-53.8,2398.7c-2.3,1290.5,0,2347.2,7,2347.2C1030.5,2281.4,1208.1,2150.5,1416.2,1991.5z"/></g></g>
</svg>